<svg width="14" height="14" viewBox="0 0 14 14" fill="none" xmlns="http://www.w3.org/2000/svg">
<path d="M9.91656 1.16656C10.6895 1.16887 11.43 1.47692 11.9766 2.02345C12.5231 2.56997 12.8311 3.31054 12.8334 4.08344V9.91656C12.8311 10.6895 12.5231 11.43 11.9766 11.9766C11.43 12.5231 10.6895 12.8311 9.91656 12.8334H4.08344C3.31054 12.8311 2.56997 12.5231 2.02345 11.9766C1.47692 11.43 1.16887 10.6895 1.16656 9.91656V4.08344C1.16887 3.31054 1.47692 2.56997 2.02345 2.02345C2.56997 1.47692 3.31054 1.16887 4.08344 1.16656H9.91656ZM9.91656 0H4.08344C1.8375 0 0 1.8375 0 4.08344V9.91656C0 12.1625 1.8375 14 4.08344 14H9.91656C12.1625 14 14 12.1625 14 9.91656V4.08344C14 1.8375 12.1625 0 9.91656 0Z" fill="white"/>
<path d="M10.7916 4.08344C10.6185 4.08344 10.4493 4.03212 10.3054 3.93597C10.1615 3.83983 10.0494 3.70317 9.98317 3.54329C9.91694 3.3834 9.89961 3.20747 9.93338 3.03773C9.96714 2.868 10.0505 2.71209 10.1728 2.58972C10.2952 2.46735 10.4511 2.38401 10.6209 2.35025C10.7906 2.31649 10.9665 2.33382 11.1264 2.40004C11.2863 2.46627 11.423 2.57842 11.5191 2.72231C11.6152 2.86621 11.6666 3.03538 11.6666 3.20844C11.6668 3.32341 11.6443 3.43731 11.6005 3.54358C11.5566 3.64985 11.4921 3.74641 11.4108 3.82771C11.3295 3.90901 11.233 3.97345 11.1267 4.01734C11.0204 4.06122 10.9065 4.08368 10.7916 4.08344Z" fill="white"/>
<path d="M7 4.66656C7.46151 4.66656 7.91266 4.80342 8.29639 5.05982C8.68012 5.31622 8.9792 5.68065 9.15582 6.10703C9.33243 6.53341 9.37864 7.00259 9.2886 7.45523C9.19856 7.90787 8.97633 8.32365 8.64999 8.64999C8.32365 8.97633 7.90787 9.19856 7.45523 9.2886C7.00259 9.37864 6.53341 9.33243 6.10703 9.15582C5.68065 8.9792 5.31622 8.68012 5.05982 8.29639C4.80342 7.91266 4.66656 7.46151 4.66656 7C4.66722 6.38134 4.91328 5.7882 5.35074 5.35074C5.7882 4.91328 6.38134 4.66722 7 4.66656ZM7 3.5C6.30777 3.5 5.63108 3.70527 5.0555 4.08986C4.47993 4.47444 4.03133 5.02107 3.76642 5.66061C3.50152 6.30015 3.4322 7.00388 3.56725 7.68282C3.7023 8.36175 4.03564 8.98539 4.52513 9.47487C5.01461 9.96436 5.63825 10.2977 6.31718 10.4327C6.99612 10.5678 7.69985 10.4985 8.33939 10.2336C8.97893 9.96867 9.52556 9.52007 9.91014 8.9445C10.2947 8.36892 10.5 7.69223 10.5 7C10.5 6.07174 10.1313 5.1815 9.47487 4.52513C8.8185 3.86875 7.92826 3.5 7 3.5Z" fill="white"/>
</svg>
