<svg width="16" height="12" viewBox="0 0 16 12" fill="none" xmlns="http://www.w3.org/2000/svg">
<path d="M15.5 1.42176C14.9373 1.66624 14.342 1.82732 13.7328 1.89988C14.373 1.525 14.8545 0.929435 15.0869 0.224883C14.4816 0.578818 13.8205 0.827155 13.1319 0.959258C12.8419 0.655361 12.4932 0.413603 12.1069 0.248678C11.7205 0.0837537 11.3047 -0.00089311 10.8847 -0.000116778C9.18406 -0.000116778 7.80781 1.35613 7.80781 3.02801C7.80661 3.26056 7.83325 3.49242 7.88719 3.71863C6.66772 3.66146 5.4736 3.35038 4.38124 2.80528C3.28889 2.26017 2.32234 1.49306 1.54344 0.553008C1.27018 1.01367 1.12567 1.53927 1.125 2.07488C1.125 3.12488 1.67281 4.05301 2.5 4.59676C2.00991 4.58513 1.52987 4.45541 1.10063 4.21863V4.25613C1.10063 5.72488 2.16313 6.94676 3.56938 7.22488C3.30493 7.29538 3.03243 7.3311 2.75875 7.33113C2.56456 7.33147 2.3708 7.31263 2.18031 7.27488C2.57125 8.47801 3.70906 9.35301 5.05688 9.37801C3.96168 10.222 2.61707 10.6782 1.23438 10.6749C0.988943 10.6745 0.743739 10.6599 0.5 10.6311C1.90662 11.5293 3.5417 12.0044 5.21063 11.9999C10.8781 11.9999 13.9744 7.38426 13.9744 3.38113C13.9744 3.24988 13.9709 3.11863 13.9647 2.99051C14.5657 2.56303 15.0856 2.03179 15.5 1.42176Z" fill="white"/>
</svg>
