<svg width="16" height="12" viewBox="0 0 16 12" fill="none" xmlns="http://www.w3.org/2000/svg">
<path d="M15.8962 2.64969C15.8962 1.24344 14.8618 0.112187 13.5837 0.112187C11.8524 0.0312499 10.0868 0 8.28242 0H7.71992C5.91992 0 4.15117 0.03125 2.41992 0.1125C1.14492 0.1125 0.110542 1.25 0.110542 2.65625C0.0324166 3.76844 -0.000708404 4.88094 0.0011666 5.99344C-0.0019584 7.10594 0.0334583 8.21948 0.107417 9.33406C0.107417 10.7403 1.14179 11.8809 2.41679 11.8809C4.23554 11.9653 6.10117 12.0028 7.99804 11.9997C9.89804 12.0059 11.7585 11.9664 13.5793 11.8809C14.8574 11.8809 15.8918 10.7403 15.8918 9.33406C15.9668 8.21844 16.0012 7.10594 15.998 5.99031C16.0051 4.87781 15.9712 3.76427 15.8962 2.64969ZM6.46992 9.05906V2.91844L11.0012 5.98719L6.46992 9.05906Z" fill="white"/>
</svg>
