<svg width="22" height="22" viewBox="0 0 22 22" fill="none" xmlns="http://www.w3.org/2000/svg">
<path fill-rule="evenodd" clip-rule="evenodd" d="M11 1C16.5228 1 21 5.47716 21 11C21 16.5228 16.5228 21 11 21C5.47716 21 1 16.5228 1 11C1 5.47716 5.47716 1 11 1Z" stroke="white" stroke-width="1.5" stroke-linecap="round" stroke-linejoin="round"/>
<path fill-rule="evenodd" clip-rule="evenodd" d="M14.0502 11.4673C13.3212 12.2533 11.3372 13.5833 10.3222 14.0103C10.1602 14.0783 9.74715 14.2223 9.65815 14.2243C9.46915 14.2303 9.28715 14.1243 9.19915 13.9543C9.16515 13.8883 9.06515 13.4573 9.03315 13.2653C8.93815 12.6813 8.88915 11.7743 8.89015 10.8623C8.88915 9.90532 8.94215 8.95532 9.04815 8.37732C9.07615 8.22132 9.15815 7.86232 9.18215 7.80432C9.22715 7.69632 9.30915 7.61132 9.40815 7.55832C9.48415 7.51732 9.57115 7.49532 9.65815 7.49832C9.74715 7.50032 10.1092 7.62732 10.2332 7.67632C11.2112 8.05632 13.2802 9.43432 14.0402 10.2443C14.1082 10.3173 14.2952 10.5133 14.3262 10.5533C14.3972 10.6433 14.4322 10.7523 14.4322 10.8623C14.4322 10.9643 14.4012 11.0683 14.3372 11.1553C14.3042 11.2003 14.1132 11.4003 14.0502 11.4673Z" stroke="white" stroke-width="1.5" stroke-linecap="round" stroke-linejoin="round"/>
</svg>
